<svg xmlns="http://www.w3.org/2000/svg" xmlns:xlink="http://www.w3.org/1999/xlink" width="2000" zoomAndPan="magnify" viewBox="0 0 1500 374.999991" height="500" preserveAspectRatio="xMidYMid meet" version="1.0"><defs><g/><clipPath id="b448882827"><rect x="0" width="750" y="0" height="84"/></clipPath><clipPath id="2aadd34857"><rect x="0" width="1500" y="0" height="311"/></clipPath></defs><g transform="matrix(1, 0, 0, 1, 750, 244)"><g clip-path="url(#b448882827)"><g fill="#002b5c" fill-opacity="1"><g transform="translate(0.0695356, 59.462805)"><g><path d="M 15.375 -41.546875 L 15.375 0 L 4.453125 0 L 4.453125 -41.546875 Z M 15.375 -41.546875 "/></g></g></g><g fill="#002b5c" fill-opacity="1"><g transform="translate(20.130552, 59.462805)"><g><path d="M 13.65625 -30.15625 L 13.65625 -26.46875 C 14.207031 -27.101562 14.835938 -27.707031 15.546875 -28.28125 C 16.265625 -28.851562 17.035156 -29.359375 17.859375 -29.796875 C 19.046875 -30.390625 20.234375 -30.765625 21.421875 -30.921875 C 22.609375 -31.078125 23.660156 -31.15625 24.578125 -31.15625 C 26.003906 -31.15625 27.257812 -31.066406 28.34375 -30.890625 C 29.425781 -30.710938 30.351562 -30.503906 31.125 -30.265625 C 31.90625 -30.035156 32.53125 -29.789062 33 -29.53125 C 33.476562 -29.269531 33.816406 -29.082031 34.015625 -28.96875 C 35.003906 -28.332031 35.785156 -27.609375 36.359375 -26.796875 C 36.929688 -25.984375 37.363281 -25.125 37.65625 -24.21875 C 37.957031 -23.3125 38.15625 -22.378906 38.25 -21.421875 C 38.351562 -20.472656 38.40625 -19.546875 38.40625 -18.640625 L 38.40625 0 L 27.953125 0 L 27.953125 -16.328125 C 27.953125 -17.546875 27.851562 -18.726562 27.65625 -19.875 C 27.457031 -21.03125 26.960938 -21.984375 26.171875 -22.734375 C 25.773438 -23.128906 25.226562 -23.460938 24.53125 -23.734375 C 23.84375 -24.015625 22.988281 -24.15625 21.96875 -24.15625 C 20.582031 -24.15625 19.441406 -23.925781 18.546875 -23.46875 C 17.660156 -23.019531 16.976562 -22.535156 16.5 -22.015625 C 15.707031 -21.191406 15.101562 -20.066406 14.6875 -18.640625 C 14.269531 -17.210938 14.0625 -15.609375 14.0625 -13.828125 L 14.0625 0 L 3.625 0 L 3.625 -30.15625 Z M 13.65625 -30.15625 "/></g></g></g><g fill="#002b5c" fill-opacity="1"><g transform="translate(62.211212, 59.462805)"><g><path d="M 25.46875 -23.75 L 17.578125 -23.75 L 17.578125 0 L 7.125 0 L 7.125 -23.75 L 0.765625 -23.75 L 0.765625 -30.15625 L 7.125 -30.15625 L 7.125 -32.53125 C 7.125 -34.382812 7.390625 -35.875 7.921875 -37 C 8.453125 -38.132812 9.054688 -39.019531 9.734375 -39.65625 C 10.367188 -40.289062 11.082031 -40.785156 11.875 -41.140625 C 12.664062 -41.492188 13.472656 -41.757812 14.296875 -41.9375 C 15.128906 -42.113281 15.929688 -42.222656 16.703125 -42.265625 C 17.472656 -42.304688 18.175781 -42.328125 18.8125 -42.328125 C 20 -42.328125 21.109375 -42.273438 22.140625 -42.171875 C 23.171875 -42.078125 24.257812 -41.910156 25.40625 -41.671875 L 25.40625 -35.5625 C 24.925781 -35.675781 24.410156 -35.757812 23.859375 -35.8125 C 23.304688 -35.875 22.8125 -35.90625 22.375 -35.90625 C 21.707031 -35.90625 21.054688 -35.828125 20.421875 -35.671875 C 19.785156 -35.515625 19.25 -35.257812 18.8125 -34.90625 C 18.257812 -34.425781 17.914062 -33.847656 17.78125 -33.171875 C 17.644531 -32.503906 17.578125 -31.972656 17.578125 -31.578125 L 17.578125 -30.15625 L 25.46875 -30.15625 Z M 25.46875 -23.75 "/></g></g></g><g fill="#002b5c" fill-opacity="1"><g transform="translate(88.504211, 59.462805)"><g><path d="M 27.1875 -23.453125 C 26.90625 -23.484375 26.566406 -23.507812 26.171875 -23.53125 C 25.773438 -23.550781 25.378906 -23.5625 24.984375 -23.5625 C 22.140625 -23.5625 19.925781 -23.007812 18.34375 -21.90625 C 17.351562 -21.226562 16.582031 -20.40625 16.03125 -19.4375 C 15.476562 -18.46875 15.050781 -17.476562 14.75 -16.46875 C 14.457031 -15.457031 14.269531 -14.488281 14.1875 -13.5625 C 14.101562 -12.632812 14.0625 -11.894531 14.0625 -11.34375 L 14.0625 0 L 3.625 0 L 3.625 -30.15625 L 13.65625 -30.15625 L 13.65625 -25.234375 C 14.050781 -25.898438 14.613281 -26.617188 15.34375 -27.390625 C 16.070312 -28.160156 17.03125 -28.863281 18.21875 -29.5 C 19.207031 -30.007812 20.21875 -30.363281 21.25 -30.5625 C 22.28125 -30.757812 23.347656 -30.859375 24.453125 -30.859375 C 24.929688 -30.859375 25.382812 -30.835938 25.8125 -30.796875 C 26.25 -30.765625 26.707031 -30.707031 27.1875 -30.625 Z M 27.1875 -23.453125 "/></g></g></g><g fill="#002b5c" fill-opacity="1"><g transform="translate(115.45001, 59.462805)"><g><path d="M 27.125 -13.890625 C 26.53125 -13.378906 25.859375 -13.039062 25.109375 -12.875 C 24.359375 -12.71875 23.226562 -12.5625 21.71875 -12.40625 L 19.53125 -12.171875 C 18.65625 -12.085938 17.863281 -11.96875 17.15625 -11.8125 C 16.445312 -11.65625 15.832031 -11.414062 15.3125 -11.09375 C 15.039062 -10.894531 14.734375 -10.597656 14.390625 -10.203125 C 14.054688 -9.804688 13.890625 -9.253906 13.890625 -8.546875 C 13.890625 -7.992188 14.007812 -7.5 14.25 -7.0625 C 14.488281 -6.625 14.785156 -6.269531 15.140625 -6 C 15.691406 -5.5625 16.332031 -5.289062 17.0625 -5.1875 C 17.789062 -5.09375 18.472656 -5.046875 19.109375 -5.046875 C 20.054688 -5.046875 21.046875 -5.164062 22.078125 -5.40625 C 23.109375 -5.644531 24.078125 -6.21875 24.984375 -7.125 C 25.617188 -7.757812 26.132812 -8.5625 26.53125 -9.53125 C 26.925781 -10.5 27.125 -11.796875 27.125 -13.421875 Z M 4.21875 -20.421875 C 4.21875 -21.921875 4.472656 -23.242188 4.984375 -24.390625 C 5.503906 -25.546875 6.21875 -26.578125 7.125 -27.484375 C 8.820312 -29.140625 10.847656 -30.1875 13.203125 -30.625 C 15.554688 -31.0625 18.097656 -31.28125 20.828125 -31.28125 C 21.898438 -31.28125 23.085938 -31.238281 24.390625 -31.15625 C 25.703125 -31.082031 27.007812 -30.90625 28.3125 -30.625 C 29.613281 -30.351562 30.867188 -29.945312 32.078125 -29.40625 C 33.285156 -28.875 34.304688 -28.175781 35.140625 -27.3125 C 35.773438 -26.632812 36.257812 -25.945312 36.59375 -25.25 C 36.925781 -24.5625 37.171875 -23.859375 37.328125 -23.140625 C 37.492188 -22.429688 37.59375 -21.726562 37.625 -21.03125 C 37.664062 -20.34375 37.6875 -19.679688 37.6875 -19.046875 L 37.6875 -5.640625 C 37.6875 -4.296875 37.753906 -3.375 37.890625 -2.875 C 38.035156 -2.382812 38.128906 -2.097656 38.171875 -2.015625 C 38.242188 -1.859375 38.410156 -1.640625 38.671875 -1.359375 C 38.929688 -1.085938 39.316406 -0.910156 39.828125 -0.828125 L 39.828125 0 L 28.4375 0 L 27.78125 -2.96875 L 27.546875 -2.96875 C 26.910156 -2.175781 26.21875 -1.519531 25.46875 -1 C 24.71875 -0.488281 23.847656 -0.078125 22.859375 0.234375 C 21.671875 0.628906 20.460938 0.875 19.234375 0.96875 C 18.003906 1.070312 16.816406 1.125 15.671875 1.125 C 14.921875 1.125 14.128906 1.101562 13.296875 1.0625 C 12.460938 1.03125 11.628906 0.953125 10.796875 0.828125 C 9.972656 0.710938 9.171875 0.523438 8.390625 0.265625 C 7.617188 0.00390625 6.921875 -0.335938 6.296875 -0.765625 C 5.503906 -1.328125 4.722656 -2.171875 3.953125 -3.296875 C 3.179688 -4.421875 2.796875 -5.972656 2.796875 -7.953125 C 2.796875 -9.097656 2.960938 -10.175781 3.296875 -11.1875 C 3.628906 -12.195312 4.210938 -13.097656 5.046875 -13.890625 C 5.753906 -14.566406 6.582031 -15.109375 7.53125 -15.515625 C 8.488281 -15.929688 9.46875 -16.257812 10.46875 -16.5 C 11.476562 -16.738281 12.46875 -16.90625 13.4375 -17 C 14.414062 -17.101562 15.300781 -17.195312 16.09375 -17.28125 L 20.828125 -17.6875 C 22.210938 -17.800781 23.367188 -17.925781 24.296875 -18.0625 C 25.234375 -18.207031 25.921875 -18.519531 26.359375 -19 C 26.597656 -19.226562 26.773438 -19.519531 26.890625 -19.875 C 27.003906 -20.238281 27.0625 -20.597656 27.0625 -20.953125 C 27.0625 -21.429688 26.941406 -21.9375 26.703125 -22.46875 C 26.472656 -23 25.960938 -23.484375 25.171875 -23.921875 C 24.617188 -24.234375 23.953125 -24.445312 23.171875 -24.5625 C 22.398438 -24.6875 21.679688 -24.75 21.015625 -24.75 C 20.816406 -24.75 20.535156 -24.738281 20.171875 -24.71875 C 19.816406 -24.695312 19.429688 -24.65625 19.015625 -24.59375 C 18.609375 -24.539062 18.175781 -24.4375 17.71875 -24.28125 C 17.257812 -24.125 16.851562 -23.925781 16.5 -23.6875 C 16.226562 -23.488281 15.882812 -23.117188 15.46875 -22.578125 C 15.050781 -22.046875 14.820312 -21.328125 14.78125 -20.421875 Z M 4.21875 -20.421875 "/></g></g></g><g fill="#002b5c" fill-opacity="1"><g transform="translate(157.115183, 59.462805)"><g><path d="M 11.984375 -9.5 L 11.984375 -9.3125 C 11.984375 -8.488281 12.203125 -7.828125 12.640625 -7.328125 C 13.078125 -6.835938 13.515625 -6.472656 13.953125 -6.234375 C 14.148438 -6.148438 14.582031 -6 15.25 -5.78125 C 15.925781 -5.570312 17.054688 -5.46875 18.640625 -5.46875 C 19.828125 -5.46875 20.742188 -5.535156 21.390625 -5.671875 C 22.046875 -5.804688 22.535156 -5.972656 22.859375 -6.171875 C 23.566406 -6.523438 24.019531 -6.929688 24.21875 -7.390625 C 24.414062 -7.847656 24.515625 -8.234375 24.515625 -8.546875 C 24.515625 -9.378906 24.253906 -9.984375 23.734375 -10.359375 C 23.222656 -10.734375 22.734375 -11.019531 22.265625 -11.21875 C 21.546875 -11.5 20.78125 -11.695312 19.96875 -11.8125 C 19.15625 -11.925781 18.21875 -12.066406 17.15625 -12.234375 L 13.59375 -12.765625 C 11.132812 -13.117188 9.3125 -13.460938 8.125 -13.796875 C 6.9375 -14.140625 6.007812 -14.523438 5.34375 -14.953125 C 4.039062 -15.742188 3.171875 -16.722656 2.734375 -17.890625 C 2.296875 -19.054688 2.078125 -20.21875 2.078125 -21.375 C 2.078125 -23.1875 2.460938 -24.71875 3.234375 -25.96875 C 4.003906 -27.21875 5.140625 -28.273438 6.640625 -29.140625 C 7.753906 -29.816406 9.191406 -30.351562 10.953125 -30.75 C 12.710938 -31.144531 15.035156 -31.34375 17.921875 -31.34375 C 19.585938 -31.34375 21.015625 -31.28125 22.203125 -31.15625 C 23.390625 -31.039062 24.394531 -30.90625 25.21875 -30.75 C 26.050781 -30.59375 26.734375 -30.414062 27.265625 -30.21875 C 27.804688 -30.019531 28.234375 -29.859375 28.546875 -29.734375 C 30.453125 -28.867188 31.789062 -27.78125 32.5625 -26.46875 C 33.332031 -25.164062 33.738281 -23.625 33.78125 -21.84375 L 23.796875 -21.84375 L 23.796875 -21.96875 C 23.796875 -23.070312 23.222656 -23.898438 22.078125 -24.453125 C 21.523438 -24.734375 20.863281 -24.921875 20.09375 -25.015625 C 19.320312 -25.117188 18.617188 -25.171875 17.984375 -25.171875 C 17.316406 -25.171875 16.613281 -25.117188 15.875 -25.015625 C 15.144531 -24.921875 14.539062 -24.753906 14.0625 -24.515625 C 13.46875 -24.203125 13.03125 -23.828125 12.75 -23.390625 C 12.476562 -22.953125 12.34375 -22.515625 12.34375 -22.078125 C 12.34375 -21.410156 12.5625 -20.914062 13 -20.59375 C 13.4375 -20.28125 13.8125 -20.046875 14.125 -19.890625 C 14.800781 -19.566406 15.613281 -19.34375 16.5625 -19.21875 C 17.507812 -19.101562 18.734375 -18.929688 20.234375 -18.703125 L 24.28125 -18.109375 C 24.789062 -18.023438 25.390625 -17.914062 26.078125 -17.78125 C 26.773438 -17.644531 27.488281 -17.46875 28.21875 -17.25 C 28.957031 -17.03125 29.679688 -16.757812 30.390625 -16.4375 C 31.097656 -16.125 31.734375 -15.75 32.296875 -15.3125 C 33.085938 -14.675781 33.769531 -13.851562 34.34375 -12.84375 C 34.914062 -11.84375 35.203125 -10.550781 35.203125 -8.96875 C 35.203125 -7.582031 34.984375 -6.363281 34.546875 -5.3125 C 34.109375 -4.257812 33.515625 -3.335938 32.765625 -2.546875 C 31.929688 -1.679688 31.007812 -1 30 -0.5 C 29 -0.0078125 27.921875 0.363281 26.765625 0.625 C 25.617188 0.882812 24.429688 1.039062 23.203125 1.09375 C 21.984375 1.15625 20.738281 1.1875 19.46875 1.1875 C 17.882812 1.1875 16.367188 1.144531 14.921875 1.0625 C 13.484375 0.988281 12.128906 0.832031 10.859375 0.59375 C 9.597656 0.351562 8.441406 0 7.390625 -0.46875 C 6.335938 -0.945312 5.398438 -1.582031 4.578125 -2.375 C 3.941406 -3.007812 3.4375 -3.648438 3.0625 -4.296875 C 2.6875 -4.953125 2.40625 -5.585938 2.21875 -6.203125 C 2.039062 -6.816406 1.921875 -7.398438 1.859375 -7.953125 C 1.804688 -8.503906 1.78125 -8.976562 1.78125 -9.375 L 1.78125 -9.5 Z M 11.984375 -9.5 "/></g></g></g><g fill="#002b5c" fill-opacity="1"><g transform="translate(194.210255, 59.462805)"><g><path d="M 0.765625 -30.15625 L 7.1875 -30.15625 L 7.1875 -39.125 L 17.625 -39.125 L 17.625 -30.15625 L 24.640625 -30.15625 L 24.640625 -23.75 L 17.625 -23.75 L 17.625 -10.5625 C 17.625 -10.007812 17.65625 -9.40625 17.71875 -8.75 C 17.78125 -8.101562 18.023438 -7.5625 18.453125 -7.125 C 18.535156 -7.039062 18.8125 -6.847656 19.28125 -6.546875 C 19.757812 -6.253906 20.554688 -6.109375 21.671875 -6.109375 C 22.140625 -6.109375 22.628906 -6.140625 23.140625 -6.203125 C 23.660156 -6.265625 24.195312 -6.394531 24.75 -6.59375 L 24.75 -0.0625 C 23.488281 0.332031 22.300781 0.585938 21.1875 0.703125 C 20.082031 0.828125 18.894531 0.890625 17.625 0.890625 C 17.070312 0.890625 16.445312 0.867188 15.75 0.828125 C 15.0625 0.785156 14.34375 0.695312 13.59375 0.5625 C 12.84375 0.425781 12.097656 0.203125 11.359375 -0.109375 C 10.628906 -0.429688 9.96875 -0.867188 9.375 -1.421875 C 8.820312 -1.941406 8.40625 -2.488281 8.125 -3.0625 C 7.851562 -3.632812 7.632812 -4.207031 7.46875 -4.78125 C 7.3125 -5.351562 7.222656 -5.90625 7.203125 -6.4375 C 7.191406 -6.96875 7.1875 -7.472656 7.1875 -7.953125 L 7.1875 -23.75 L 0.765625 -23.75 Z M 0.765625 -30.15625 "/></g></g></g><g fill="#002b5c" fill-opacity="1"><g transform="translate(220.206508, 59.462805)"><g><path d="M 27.1875 -23.453125 C 26.90625 -23.484375 26.566406 -23.507812 26.171875 -23.53125 C 25.773438 -23.550781 25.378906 -23.5625 24.984375 -23.5625 C 22.140625 -23.5625 19.925781 -23.007812 18.34375 -21.90625 C 17.351562 -21.226562 16.582031 -20.40625 16.03125 -19.4375 C 15.476562 -18.46875 15.050781 -17.476562 14.75 -16.46875 C 14.457031 -15.457031 14.269531 -14.488281 14.1875 -13.5625 C 14.101562 -12.632812 14.0625 -11.894531 14.0625 -11.34375 L 14.0625 0 L 3.625 0 L 3.625 -30.15625 L 13.65625 -30.15625 L 13.65625 -25.234375 C 14.050781 -25.898438 14.613281 -26.617188 15.34375 -27.390625 C 16.070312 -28.160156 17.03125 -28.863281 18.21875 -29.5 C 19.207031 -30.007812 20.21875 -30.363281 21.25 -30.5625 C 22.28125 -30.757812 23.347656 -30.859375 24.453125 -30.859375 C 24.929688 -30.859375 25.382812 -30.835938 25.8125 -30.796875 C 26.25 -30.765625 26.707031 -30.707031 27.1875 -30.625 Z M 27.1875 -23.453125 "/></g></g></g><g fill="#002b5c" fill-opacity="1"><g transform="translate(247.864574, 59.462805)"><g><path d="M 28.3125 -3.734375 L 28.078125 -3.734375 C 27.878906 -3.460938 27.394531 -2.929688 26.625 -2.140625 C 25.851562 -1.347656 24.832031 -0.675781 23.5625 -0.125 C 22.8125 0.195312 21.867188 0.457031 20.734375 0.65625 C 19.609375 0.851562 18.195312 0.953125 16.5 0.953125 C 15.832031 0.953125 15.070312 0.921875 14.21875 0.859375 C 13.363281 0.796875 12.476562 0.65625 11.5625 0.4375 C 10.65625 0.226562 9.765625 -0.0625 8.890625 -0.4375 C 8.023438 -0.820312 7.257812 -1.328125 6.59375 -1.953125 C 5.84375 -2.671875 5.257812 -3.453125 4.84375 -4.296875 C 4.425781 -5.148438 4.109375 -6.007812 3.890625 -6.875 C 3.671875 -7.75 3.539062 -8.59375 3.5 -9.40625 C 3.457031 -10.21875 3.4375 -10.941406 3.4375 -11.578125 L 3.4375 -30.15625 L 13.890625 -30.15625 L 13.890625 -13.46875 C 13.890625 -13.039062 13.898438 -12.566406 13.921875 -12.046875 C 13.941406 -11.535156 14.007812 -11.007812 14.125 -10.46875 C 14.25 -9.9375 14.414062 -9.421875 14.625 -8.921875 C 14.84375 -8.429688 15.171875 -7.988281 15.609375 -7.59375 C 16.003906 -7.195312 16.566406 -6.835938 17.296875 -6.515625 C 18.035156 -6.203125 19.015625 -6.046875 20.234375 -6.046875 C 21.023438 -6.046875 21.90625 -6.164062 22.875 -6.40625 C 23.851562 -6.644531 24.738281 -7.203125 25.53125 -8.078125 C 26.476562 -9.097656 27.0625 -10.289062 27.28125 -11.65625 C 27.5 -13.03125 27.609375 -14.347656 27.609375 -15.609375 L 27.609375 -30.15625 L 38.046875 -30.15625 L 38.046875 0 L 28.3125 0 Z M 28.3125 -3.734375 "/></g></g></g><g fill="#002b5c" fill-opacity="1"><g transform="translate(289.767173, 59.462805)"><g><path d="M 26.828125 -30.15625 L 38.640625 -30.15625 L 24.640625 -18.15625 L 39.296875 0 L 27.65625 0 L 18.109375 -12.828125 L 14.0625 -9.3125 L 14.0625 0 L 3.625 0 L 3.625 -41.546875 L 14.0625 -41.546875 L 14.0625 -18.515625 Z M 26.828125 -30.15625 "/></g></g></g><g fill="#002b5c" fill-opacity="1"><g transform="translate(328.820906, 59.462805)"><g><path d="M 0.765625 -30.15625 L 7.1875 -30.15625 L 7.1875 -39.125 L 17.625 -39.125 L 17.625 -30.15625 L 24.640625 -30.15625 L 24.640625 -23.75 L 17.625 -23.75 L 17.625 -10.5625 C 17.625 -10.007812 17.65625 -9.40625 17.71875 -8.75 C 17.78125 -8.101562 18.023438 -7.5625 18.453125 -7.125 C 18.535156 -7.039062 18.8125 -6.847656 19.28125 -6.546875 C 19.757812 -6.253906 20.554688 -6.109375 21.671875 -6.109375 C 22.140625 -6.109375 22.628906 -6.140625 23.140625 -6.203125 C 23.660156 -6.265625 24.195312 -6.394531 24.75 -6.59375 L 24.75 -0.0625 C 23.488281 0.332031 22.300781 0.585938 21.1875 0.703125 C 20.082031 0.828125 18.894531 0.890625 17.625 0.890625 C 17.070312 0.890625 16.445312 0.867188 15.75 0.828125 C 15.0625 0.785156 14.34375 0.695312 13.59375 0.5625 C 12.84375 0.425781 12.097656 0.203125 11.359375 -0.109375 C 10.628906 -0.429688 9.96875 -0.867188 9.375 -1.421875 C 8.820312 -1.941406 8.40625 -2.488281 8.125 -3.0625 C 7.851562 -3.632812 7.632812 -4.207031 7.46875 -4.78125 C 7.3125 -5.351562 7.222656 -5.90625 7.203125 -6.4375 C 7.191406 -6.96875 7.1875 -7.472656 7.1875 -7.953125 L 7.1875 -23.75 L 0.765625 -23.75 Z M 0.765625 -30.15625 "/></g></g></g><g fill="#002b5c" fill-opacity="1"><g transform="translate(354.817137, 59.462805)"><g><path d="M 28.3125 -3.734375 L 28.078125 -3.734375 C 27.878906 -3.460938 27.394531 -2.929688 26.625 -2.140625 C 25.851562 -1.347656 24.832031 -0.675781 23.5625 -0.125 C 22.8125 0.195312 21.867188 0.457031 20.734375 0.65625 C 19.609375 0.851562 18.195312 0.953125 16.5 0.953125 C 15.832031 0.953125 15.070312 0.921875 14.21875 0.859375 C 13.363281 0.796875 12.476562 0.65625 11.5625 0.4375 C 10.65625 0.226562 9.765625 -0.0625 8.890625 -0.4375 C 8.023438 -0.820312 7.257812 -1.328125 6.59375 -1.953125 C 5.84375 -2.671875 5.257812 -3.453125 4.84375 -4.296875 C 4.425781 -5.148438 4.109375 -6.007812 3.890625 -6.875 C 3.671875 -7.75 3.539062 -8.59375 3.5 -9.40625 C 3.457031 -10.21875 3.4375 -10.941406 3.4375 -11.578125 L 3.4375 -30.15625 L 13.890625 -30.15625 L 13.890625 -13.46875 C 13.890625 -13.039062 13.898438 -12.566406 13.921875 -12.046875 C 13.941406 -11.535156 14.007812 -11.007812 14.125 -10.46875 C 14.25 -9.9375 14.414062 -9.421875 14.625 -8.921875 C 14.84375 -8.429688 15.171875 -7.988281 15.609375 -7.59375 C 16.003906 -7.195312 16.566406 -6.835938 17.296875 -6.515625 C 18.035156 -6.203125 19.015625 -6.046875 20.234375 -6.046875 C 21.023438 -6.046875 21.90625 -6.164062 22.875 -6.40625 C 23.851562 -6.644531 24.738281 -7.203125 25.53125 -8.078125 C 26.476562 -9.097656 27.0625 -10.289062 27.28125 -11.65625 C 27.5 -13.03125 27.609375 -14.347656 27.609375 -15.609375 L 27.609375 -30.15625 L 38.046875 -30.15625 L 38.046875 0 L 28.3125 0 Z M 28.3125 -3.734375 "/></g></g></g><g fill="#002b5c" fill-opacity="1"><g transform="translate(396.719736, 59.462805)"><g><path d="M 27.1875 -23.453125 C 26.90625 -23.484375 26.566406 -23.507812 26.171875 -23.53125 C 25.773438 -23.550781 25.378906 -23.5625 24.984375 -23.5625 C 22.140625 -23.5625 19.925781 -23.007812 18.34375 -21.90625 C 17.351562 -21.226562 16.582031 -20.40625 16.03125 -19.4375 C 15.476562 -18.46875 15.050781 -17.476562 14.75 -16.46875 C 14.457031 -15.457031 14.269531 -14.488281 14.1875 -13.5625 C 14.101562 -12.632812 14.0625 -11.894531 14.0625 -11.34375 L 14.0625 0 L 3.625 0 L 3.625 -30.15625 L 13.65625 -30.15625 L 13.65625 -25.234375 C 14.050781 -25.898438 14.613281 -26.617188 15.34375 -27.390625 C 16.070312 -28.160156 17.03125 -28.863281 18.21875 -29.5 C 19.207031 -30.007812 20.21875 -30.363281 21.25 -30.5625 C 22.28125 -30.757812 23.347656 -30.859375 24.453125 -30.859375 C 24.929688 -30.859375 25.382812 -30.835938 25.8125 -30.796875 C 26.25 -30.765625 26.707031 -30.707031 27.1875 -30.625 Z M 27.1875 -23.453125 "/></g></g></g><g fill="#002b5c" fill-opacity="1"><g transform="translate(418.323496, 59.462805)"><g><path d="M 6.296875 -9.734375 L 17.21875 -9.734375 L 17.21875 -0.890625 C 17.21875 -0.253906 17.195312 0.425781 17.15625 1.15625 C 17.113281 1.882812 17.015625 2.625 16.859375 3.375 C 16.703125 4.132812 16.441406 4.867188 16.078125 5.578125 C 15.722656 6.285156 15.25 6.957031 14.65625 7.59375 C 13.632812 8.625 12.445312 9.328125 11.09375 9.703125 C 9.75 10.078125 8.207031 10.265625 6.46875 10.265625 L 6.296875 10.265625 L 6.296875 5.640625 L 6.640625 5.640625 C 8.503906 5.640625 9.851562 5.1875 10.6875 4.28125 C 11.15625 3.800781 11.519531 3.164062 11.78125 2.375 C 12.039062 1.582031 12.128906 0.789062 12.046875 0 L 6.296875 0 Z M 6.296875 -9.734375 "/></g></g></g><g fill="#002b5c" fill-opacity="1"><g transform="translate(441.826938, 59.462805)"><g/></g></g><g fill="#002b5c" fill-opacity="1"><g transform="translate(455.655972, 59.462805)"><g><path d="M 21.375 -24.453125 C 20.34375 -24.453125 19.28125 -24.285156 18.1875 -23.953125 C 17.101562 -23.617188 16.109375 -22.9375 15.203125 -21.90625 C 14.441406 -21.03125 13.90625 -20 13.59375 -18.8125 C 13.28125 -17.625 13.125 -16.378906 13.125 -15.078125 C 13.125 -13.804688 13.320312 -12.523438 13.71875 -11.234375 C 14.113281 -9.953125 14.722656 -8.859375 15.546875 -7.953125 C 16.421875 -7.046875 17.363281 -6.441406 18.375 -6.140625 C 19.382812 -5.847656 20.421875 -5.703125 21.484375 -5.703125 C 22.515625 -5.703125 23.503906 -5.828125 24.453125 -6.078125 C 25.398438 -6.335938 26.3125 -6.90625 27.1875 -7.78125 C 28.09375 -8.6875 28.765625 -9.8125 29.203125 -11.15625 C 29.640625 -12.5 29.859375 -13.828125 29.859375 -15.140625 C 29.859375 -16.242188 29.6875 -17.390625 29.34375 -18.578125 C 29.007812 -19.765625 28.507812 -20.796875 27.84375 -21.671875 C 26.851562 -22.890625 25.742188 -23.65625 24.515625 -23.96875 C 23.285156 -24.289062 22.238281 -24.453125 21.375 -24.453125 Z M 29.796875 -3.5625 C 29.398438 -2.882812 28.894531 -2.25 28.28125 -1.65625 C 27.664062 -1.0625 26.847656 -0.550781 25.828125 -0.125 C 24.710938 0.351562 23.539062 0.648438 22.3125 0.765625 C 21.09375 0.890625 19.789062 0.953125 18.40625 0.953125 C 17.375 0.953125 16.332031 0.910156 15.28125 0.828125 C 14.238281 0.753906 13.203125 0.585938 12.171875 0.328125 C 11.140625 0.0664062 10.117188 -0.335938 9.109375 -0.890625 C 8.097656 -1.441406 7.140625 -2.191406 6.234375 -3.140625 C 5.003906 -4.410156 4.023438 -6.046875 3.296875 -8.046875 C 2.566406 -10.046875 2.203125 -12.347656 2.203125 -14.953125 C 2.203125 -16.503906 2.335938 -17.910156 2.609375 -19.171875 C 2.890625 -20.441406 3.242188 -21.578125 3.671875 -22.578125 C 4.109375 -23.585938 4.601562 -24.46875 5.15625 -25.21875 C 5.71875 -25.976562 6.296875 -26.632812 6.890625 -27.1875 C 7.835938 -28.09375 8.832031 -28.800781 9.875 -29.3125 C 10.925781 -29.832031 11.96875 -30.226562 13 -30.5 C 14.03125 -30.78125 15.039062 -30.953125 16.03125 -31.015625 C 17.019531 -31.078125 17.925781 -31.109375 18.75 -31.109375 C 20.132812 -31.109375 21.351562 -31.023438 22.40625 -30.859375 C 23.457031 -30.703125 24.578125 -30.347656 25.765625 -29.796875 C 26.671875 -29.398438 27.410156 -28.960938 27.984375 -28.484375 C 28.554688 -28.015625 29.082031 -27.425781 29.5625 -26.71875 L 29.5625 -41.546875 L 40.015625 -41.546875 L 40.015625 0 L 30.03125 0 L 30.03125 -3.5625 Z M 29.796875 -3.5625 "/></g></g></g><g fill="#002b5c" fill-opacity="1"><g transform="translate(499.517221, 59.462805)"><g><path d="M 3.625 -41.96875 L 14.0625 -41.96875 L 14.0625 -34.96875 L 3.625 -34.96875 Z M 14.0625 -30.15625 L 14.0625 0 L 3.625 0 L 3.625 -30.15625 Z M 14.0625 -30.15625 "/></g></g></g><g fill="#002b5c" fill-opacity="1"><g transform="translate(517.441548, 59.462805)"><g><path d="M 29.734375 -18.453125 C 29.660156 -19.679688 29.394531 -20.671875 28.9375 -21.421875 C 28.476562 -22.179688 28.035156 -22.738281 27.609375 -23.09375 C 26.691406 -23.882812 25.675781 -24.378906 24.5625 -24.578125 C 23.457031 -24.773438 22.410156 -24.875 21.421875 -24.875 C 20.359375 -24.875 19.34375 -24.773438 18.375 -24.578125 C 17.40625 -24.378906 16.460938 -23.921875 15.546875 -23.203125 C 14.953125 -22.734375 14.40625 -22.113281 13.90625 -21.34375 C 13.414062 -20.570312 13.132812 -19.609375 13.0625 -18.453125 Z M 40.0625 -9.859375 C 39.863281 -7.910156 39.238281 -6.085938 38.1875 -4.390625 C 37.144531 -2.691406 35.59375 -1.382812 33.53125 -0.46875 C 32.113281 0.15625 30.484375 0.578125 28.640625 0.796875 C 26.796875 1.015625 24.648438 1.125 22.203125 1.125 C 20.492188 1.125 18.890625 1.070312 17.390625 0.96875 C 15.890625 0.875 14.484375 0.664062 13.171875 0.34375 C 11.867188 0.03125 10.644531 -0.421875 9.5 -1.015625 C 8.351562 -1.609375 7.300781 -2.378906 6.34375 -3.328125 C 5.476562 -4.191406 4.773438 -5.085938 4.234375 -6.015625 C 3.703125 -6.953125 3.285156 -7.894531 2.984375 -8.84375 C 2.691406 -9.789062 2.488281 -10.75 2.375 -11.71875 C 2.257812 -12.6875 2.203125 -13.648438 2.203125 -14.609375 C 2.203125 -15.359375 2.25 -16.226562 2.34375 -17.21875 C 2.445312 -18.207031 2.65625 -19.234375 2.96875 -20.296875 C 3.28125 -21.367188 3.734375 -22.445312 4.328125 -23.53125 C 4.921875 -24.625 5.710938 -25.644531 6.703125 -26.59375 C 7.734375 -27.582031 8.851562 -28.390625 10.0625 -29.015625 C 11.269531 -29.648438 12.515625 -30.125 13.796875 -30.4375 C 15.085938 -30.757812 16.375 -30.976562 17.65625 -31.09375 C 18.945312 -31.21875 20.1875 -31.28125 21.375 -31.28125 C 22.5625 -31.28125 23.816406 -31.21875 25.140625 -31.09375 C 26.460938 -30.976562 27.785156 -30.742188 29.109375 -30.390625 C 30.441406 -30.035156 31.726562 -29.539062 32.96875 -28.90625 C 34.21875 -28.269531 35.359375 -27.441406 36.390625 -26.421875 C 37.335938 -25.460938 38.078125 -24.457031 38.609375 -23.40625 C 39.148438 -22.363281 39.554688 -21.304688 39.828125 -20.234375 C 40.109375 -19.171875 40.285156 -18.125 40.359375 -17.09375 C 40.441406 -16.0625 40.484375 -15.09375 40.484375 -14.1875 L 40.484375 -13.125 L 12.875 -13.125 L 12.875 -12.9375 C 12.875 -11.632812 13.070312 -10.535156 13.46875 -9.640625 C 13.863281 -8.753906 14.320312 -8.050781 14.84375 -7.53125 C 15.75 -6.625 16.820312 -6.0625 18.0625 -5.84375 C 19.3125 -5.625 20.453125 -5.515625 21.484375 -5.515625 C 22.273438 -5.515625 23.1875 -5.5625 24.21875 -5.65625 C 25.25 -5.757812 26.140625 -5.988281 26.890625 -6.34375 C 27.441406 -6.625 27.972656 -7.03125 28.484375 -7.5625 C 29.003906 -8.101562 29.363281 -8.867188 29.5625 -9.859375 Z M 40.0625 -9.859375 "/></g></g></g><g fill="#002b5c" fill-opacity="1"><g transform="translate(560.23443, 59.462805)"><g/></g></g><g fill="#002b5c" fill-opacity="1"><g transform="translate(574.063509, 59.462805)"><g><path d="M 14.0625 -41.546875 L 14.0625 0 L 3.625 0 L 3.625 -41.546875 Z M 14.0625 -41.546875 "/></g></g></g><g fill="#002b5c" fill-opacity="1"><g transform="translate(591.987836, 59.462805)"><g><path d="M 27.125 -13.890625 C 26.53125 -13.378906 25.859375 -13.039062 25.109375 -12.875 C 24.359375 -12.71875 23.226562 -12.5625 21.71875 -12.40625 L 19.53125 -12.171875 C 18.65625 -12.085938 17.863281 -11.96875 17.15625 -11.8125 C 16.445312 -11.65625 15.832031 -11.414062 15.3125 -11.09375 C 15.039062 -10.894531 14.734375 -10.597656 14.390625 -10.203125 C 14.054688 -9.804688 13.890625 -9.253906 13.890625 -8.546875 C 13.890625 -7.992188 14.007812 -7.5 14.25 -7.0625 C 14.488281 -6.625 14.785156 -6.269531 15.140625 -6 C 15.691406 -5.5625 16.332031 -5.289062 17.0625 -5.1875 C 17.789062 -5.09375 18.472656 -5.046875 19.109375 -5.046875 C 20.054688 -5.046875 21.046875 -5.164062 22.078125 -5.40625 C 23.109375 -5.644531 24.078125 -6.21875 24.984375 -7.125 C 25.617188 -7.757812 26.132812 -8.5625 26.53125 -9.53125 C 26.925781 -10.5 27.125 -11.796875 27.125 -13.421875 Z M 4.21875 -20.421875 C 4.21875 -21.921875 4.472656 -23.242188 4.984375 -24.390625 C 5.503906 -25.546875 6.21875 -26.578125 7.125 -27.484375 C 8.820312 -29.140625 10.847656 -30.1875 13.203125 -30.625 C 15.554688 -31.0625 18.097656 -31.28125 20.828125 -31.28125 C 21.898438 -31.28125 23.085938 -31.238281 24.390625 -31.15625 C 25.703125 -31.082031 27.007812 -30.90625 28.3125 -30.625 C 29.613281 -30.351562 30.867188 -29.945312 32.078125 -29.40625 C 33.285156 -28.875 34.304688 -28.175781 35.140625 -27.3125 C 35.773438 -26.632812 36.257812 -25.945312 36.59375 -25.25 C 36.925781 -24.5625 37.171875 -23.859375 37.328125 -23.140625 C 37.492188 -22.429688 37.59375 -21.726562 37.625 -21.03125 C 37.664062 -20.34375 37.6875 -19.679688 37.6875 -19.046875 L 37.6875 -5.640625 C 37.6875 -4.296875 37.753906 -3.375 37.890625 -2.875 C 38.035156 -2.382812 38.128906 -2.097656 38.171875 -2.015625 C 38.242188 -1.859375 38.410156 -1.640625 38.671875 -1.359375 C 38.929688 -1.085938 39.316406 -0.910156 39.828125 -0.828125 L 39.828125 0 L 28.4375 0 L 27.78125 -2.96875 L 27.546875 -2.96875 C 26.910156 -2.175781 26.21875 -1.519531 25.46875 -1 C 24.71875 -0.488281 23.847656 -0.078125 22.859375 0.234375 C 21.671875 0.628906 20.460938 0.875 19.234375 0.96875 C 18.003906 1.070312 16.816406 1.125 15.671875 1.125 C 14.921875 1.125 14.128906 1.101562 13.296875 1.0625 C 12.460938 1.03125 11.628906 0.953125 10.796875 0.828125 C 9.972656 0.710938 9.171875 0.523438 8.390625 0.265625 C 7.617188 0.00390625 6.921875 -0.335938 6.296875 -0.765625 C 5.503906 -1.328125 4.722656 -2.171875 3.953125 -3.296875 C 3.179688 -4.421875 2.796875 -5.972656 2.796875 -7.953125 C 2.796875 -9.097656 2.960938 -10.175781 3.296875 -11.1875 C 3.628906 -12.195312 4.210938 -13.097656 5.046875 -13.890625 C 5.753906 -14.566406 6.582031 -15.109375 7.53125 -15.515625 C 8.488281 -15.929688 9.46875 -16.257812 10.46875 -16.5 C 11.476562 -16.738281 12.46875 -16.90625 13.4375 -17 C 14.414062 -17.101562 15.300781 -17.195312 16.09375 -17.28125 L 20.828125 -17.6875 C 22.210938 -17.800781 23.367188 -17.925781 24.296875 -18.0625 C 25.234375 -18.207031 25.921875 -18.519531 26.359375 -19 C 26.597656 -19.226562 26.773438 -19.519531 26.890625 -19.875 C 27.003906 -20.238281 27.0625 -20.597656 27.0625 -20.953125 C 27.0625 -21.429688 26.941406 -21.9375 26.703125 -22.46875 C 26.472656 -23 25.960938 -23.484375 25.171875 -23.921875 C 24.617188 -24.234375 23.953125 -24.445312 23.171875 -24.5625 C 22.398438 -24.6875 21.679688 -24.75 21.015625 -24.75 C 20.816406 -24.75 20.535156 -24.738281 20.171875 -24.71875 C 19.816406 -24.695312 19.429688 -24.65625 19.015625 -24.59375 C 18.609375 -24.539062 18.175781 -24.4375 17.71875 -24.28125 C 17.257812 -24.125 16.851562 -23.925781 16.5 -23.6875 C 16.226562 -23.488281 15.882812 -23.117188 15.46875 -22.578125 C 15.050781 -22.046875 14.820312 -21.328125 14.78125 -20.421875 Z M 24.046875 -42.03125 L 33.25 -42.03125 L 33.25 -35.4375 L 24.046875 -35.4375 Z M 8.4375 -42.03125 L 17.578125 -42.03125 L 17.578125 -35.4375 L 8.4375 -35.4375 Z M 8.4375 -42.03125 "/></g></g></g><g fill="#002b5c" fill-opacity="1"><g transform="translate(634.009142, 59.462805)"><g><path d="M 28.3125 -3.734375 L 28.078125 -3.734375 C 27.878906 -3.460938 27.394531 -2.929688 26.625 -2.140625 C 25.851562 -1.347656 24.832031 -0.675781 23.5625 -0.125 C 22.8125 0.195312 21.867188 0.457031 20.734375 0.65625 C 19.609375 0.851562 18.195312 0.953125 16.5 0.953125 C 15.832031 0.953125 15.070312 0.921875 14.21875 0.859375 C 13.363281 0.796875 12.476562 0.65625 11.5625 0.4375 C 10.65625 0.226562 9.765625 -0.0625 8.890625 -0.4375 C 8.023438 -0.820312 7.257812 -1.328125 6.59375 -1.953125 C 5.84375 -2.671875 5.257812 -3.453125 4.84375 -4.296875 C 4.425781 -5.148438 4.109375 -6.007812 3.890625 -6.875 C 3.671875 -7.75 3.539062 -8.59375 3.5 -9.40625 C 3.457031 -10.21875 3.4375 -10.941406 3.4375 -11.578125 L 3.4375 -30.15625 L 13.890625 -30.15625 L 13.890625 -13.46875 C 13.890625 -13.039062 13.898438 -12.566406 13.921875 -12.046875 C 13.941406 -11.535156 14.007812 -11.007812 14.125 -10.46875 C 14.25 -9.9375 14.414062 -9.421875 14.625 -8.921875 C 14.84375 -8.429688 15.171875 -7.988281 15.609375 -7.59375 C 16.003906 -7.195312 16.566406 -6.835938 17.296875 -6.515625 C 18.035156 -6.203125 19.015625 -6.046875 20.234375 -6.046875 C 21.023438 -6.046875 21.90625 -6.164062 22.875 -6.40625 C 23.851562 -6.644531 24.738281 -7.203125 25.53125 -8.078125 C 26.476562 -9.097656 27.0625 -10.289062 27.28125 -11.65625 C 27.5 -13.03125 27.609375 -14.347656 27.609375 -15.609375 L 27.609375 -30.15625 L 38.046875 -30.15625 L 38.046875 0 L 28.3125 0 Z M 28.3125 -3.734375 "/></g></g></g><g fill="#002b5c" fill-opacity="1"><g transform="translate(675.911741, 59.462805)"><g><path d="M 25.46875 -23.75 L 17.578125 -23.75 L 17.578125 0 L 7.125 0 L 7.125 -23.75 L 0.765625 -23.75 L 0.765625 -30.15625 L 7.125 -30.15625 L 7.125 -32.53125 C 7.125 -34.382812 7.390625 -35.875 7.921875 -37 C 8.453125 -38.132812 9.054688 -39.019531 9.734375 -39.65625 C 10.367188 -40.289062 11.082031 -40.785156 11.875 -41.140625 C 12.664062 -41.492188 13.472656 -41.757812 14.296875 -41.9375 C 15.128906 -42.113281 15.929688 -42.222656 16.703125 -42.265625 C 17.472656 -42.304688 18.175781 -42.328125 18.8125 -42.328125 C 20 -42.328125 21.109375 -42.273438 22.140625 -42.171875 C 23.171875 -42.078125 24.257812 -41.910156 25.40625 -41.671875 L 25.40625 -35.5625 C 24.925781 -35.675781 24.410156 -35.757812 23.859375 -35.8125 C 23.304688 -35.875 22.8125 -35.90625 22.375 -35.90625 C 21.707031 -35.90625 21.054688 -35.828125 20.421875 -35.671875 C 19.785156 -35.515625 19.25 -35.257812 18.8125 -34.90625 C 18.257812 -34.425781 17.914062 -33.847656 17.78125 -33.171875 C 17.644531 -32.503906 17.578125 -31.972656 17.578125 -31.578125 L 17.578125 -30.15625 L 25.46875 -30.15625 Z M 25.46875 -23.75 "/></g></g></g><g fill="#002b5c" fill-opacity="1"><g transform="translate(702.204739, 59.462805)"><g><path d="M 0.765625 -30.15625 L 7.1875 -30.15625 L 7.1875 -39.125 L 17.625 -39.125 L 17.625 -30.15625 L 24.640625 -30.15625 L 24.640625 -23.75 L 17.625 -23.75 L 17.625 -10.5625 C 17.625 -10.007812 17.65625 -9.40625 17.71875 -8.75 C 17.78125 -8.101562 18.023438 -7.5625 18.453125 -7.125 C 18.535156 -7.039062 18.8125 -6.847656 19.28125 -6.546875 C 19.757812 -6.253906 20.554688 -6.109375 21.671875 -6.109375 C 22.140625 -6.109375 22.628906 -6.140625 23.140625 -6.203125 C 23.660156 -6.265625 24.195312 -6.394531 24.75 -6.59375 L 24.75 -0.0625 C 23.488281 0.332031 22.300781 0.585938 21.1875 0.703125 C 20.082031 0.828125 18.894531 0.890625 17.625 0.890625 C 17.070312 0.890625 16.445312 0.867188 15.75 0.828125 C 15.0625 0.785156 14.34375 0.695312 13.59375 0.5625 C 12.84375 0.425781 12.097656 0.203125 11.359375 -0.109375 C 10.628906 -0.429688 9.96875 -0.867188 9.375 -1.421875 C 8.820312 -1.941406 8.40625 -2.488281 8.125 -3.0625 C 7.851562 -3.632812 7.632812 -4.207031 7.46875 -4.78125 C 7.3125 -5.351562 7.222656 -5.90625 7.203125 -6.4375 C 7.191406 -6.96875 7.1875 -7.472656 7.1875 -7.953125 L 7.1875 -23.75 L 0.765625 -23.75 Z M 0.765625 -30.15625 "/></g></g></g><g fill="#002b5c" fill-opacity="1"><g transform="translate(726.42029, 59.462805)"><g><path d="M 6.296875 -9.734375 L 17.21875 -9.734375 L 17.21875 0 L 6.296875 0 Z M 6.296875 -9.734375 "/></g></g></g></g></g><g transform="matrix(1, 0, 0, 1, 0, 0)"><g clip-path="url(#2aadd34857)"><g fill="#004b93" fill-opacity="1"><g transform="translate(0.000018, 214.896966)"><g><path d="M 54.203125 -54.203125 L 54.203125 -53.25 C 54.203125 -49.269531 54.835938 -46.003906 56.109375 -43.453125 C 57.390625 -40.910156 58.90625 -38.84375 60.65625 -37.25 C 62.71875 -35.175781 65.179688 -33.539062 68.046875 -32.34375 C 70.910156 -31.15625 73.816406 -30.242188 76.765625 -29.609375 C 79.710938 -28.972656 82.578125 -28.570312 85.359375 -28.40625 C 88.148438 -28.25 90.660156 -28.171875 92.890625 -28.171875 C 99.253906 -28.171875 104.265625 -28.488281 107.921875 -29.125 C 111.585938 -29.769531 114.535156 -30.726562 116.765625 -32 C 120.421875 -33.90625 123.164062 -36.445312 125 -39.625 C 126.832031 -42.8125 127.75 -45.84375 127.75 -48.71875 C 127.75 -50.625 127.070312 -52.96875 125.71875 -55.75 C 124.363281 -58.539062 121.140625 -60.96875 116.046875 -63.03125 C 114.773438 -63.507812 113.144531 -64.023438 111.15625 -64.578125 C 109.164062 -65.140625 107.054688 -65.660156 104.828125 -66.140625 C 102.597656 -66.617188 100.40625 -67.054688 98.25 -67.453125 C 96.101562 -67.847656 94.316406 -68.207031 92.890625 -68.53125 L 68.765625 -72.34375 C 64.148438 -72.988281 59.453125 -73.75 54.671875 -74.625 C 49.898438 -75.5 45.285156 -76.609375 40.828125 -77.953125 C 36.367188 -79.304688 32.226562 -80.976562 28.40625 -82.96875 C 24.59375 -84.96875 21.332031 -87.476562 18.625 -90.5 C 16.71875 -92.726562 14.6875 -95.953125 12.53125 -100.171875 C 10.382812 -104.390625 9.3125 -110.078125 9.3125 -117.234375 C 9.3125 -126.953125 11.222656 -135.3125 15.046875 -142.3125 C 18.867188 -149.3125 24.597656 -155.203125 32.234375 -159.984375 C 36.367188 -162.523438 40.742188 -164.59375 45.359375 -166.1875 C 49.984375 -167.78125 54.640625 -169.015625 59.328125 -169.890625 C 64.023438 -170.765625 68.722656 -171.320312 73.421875 -171.5625 C 78.117188 -171.800781 82.617188 -171.921875 86.921875 -171.921875 C 102.035156 -171.921875 114.128906 -170.882812 123.203125 -168.8125 C 132.285156 -166.75 139.609375 -164.046875 145.171875 -160.703125 C 150.109375 -157.835938 154.085938 -154.691406 157.109375 -151.265625 C 160.140625 -147.847656 162.453125 -144.347656 164.046875 -140.765625 C 165.640625 -137.179688 166.671875 -133.632812 167.140625 -130.125 C 167.617188 -126.625 167.78125 -123.285156 167.625 -120.109375 L 123.21875 -120.109375 C 122.894531 -123.128906 122.054688 -125.953125 120.703125 -128.578125 C 119.347656 -131.210938 116.84375 -133.484375 113.1875 -135.390625 C 111.269531 -136.347656 109.078125 -137.144531 106.609375 -137.78125 C 104.148438 -138.414062 101.6875 -138.890625 99.21875 -139.203125 C 96.75 -139.523438 94.359375 -139.722656 92.046875 -139.796875 C 89.742188 -139.878906 87.875 -139.921875 86.4375 -139.921875 C 82.300781 -139.921875 78.160156 -139.601562 74.015625 -138.96875 C 69.878906 -138.332031 66.378906 -137.140625 63.515625 -135.390625 C 60.804688 -133.640625 58.734375 -131.488281 57.296875 -128.9375 C 55.867188 -126.394531 55.15625 -123.691406 55.15625 -120.828125 C 55.15625 -117.003906 56.46875 -114.175781 59.09375 -112.34375 C 61.71875 -110.507812 64.382812 -109.117188 67.09375 -108.171875 C 68.207031 -107.691406 69.519531 -107.25 71.03125 -106.84375 C 72.550781 -106.445312 74.382812 -106.007812 76.53125 -105.53125 C 78.675781 -105.0625 81.300781 -104.546875 84.40625 -103.984375 C 87.507812 -103.429688 91.289062 -102.835938 95.75 -102.203125 L 114.859375 -99.09375 C 122.335938 -97.820312 129.894531 -96.226562 137.53125 -94.3125 C 145.175781 -92.40625 151.785156 -89.382812 157.359375 -85.25 C 164.359375 -79.988281 168.929688 -74.054688 171.078125 -67.453125 C 173.234375 -60.847656 174.3125 -54.601562 174.3125 -48.71875 C 174.3125 -38.519531 172.359375 -30.15625 168.453125 -23.625 C 164.554688 -17.101562 159.984375 -11.9375 154.734375 -8.125 C 152.503906 -6.53125 149.796875 -4.972656 146.609375 -3.453125 C 143.429688 -1.941406 139.53125 -0.59375 134.90625 0.59375 C 130.289062 1.789062 124.757812 2.785156 118.3125 3.578125 C 111.863281 4.378906 104.34375 4.78125 95.75 4.78125 C 89.0625 4.78125 82.253906 4.578125 75.328125 4.171875 C 68.410156 3.773438 61.726562 2.941406 55.28125 1.671875 C 48.832031 0.398438 42.742188 -1.546875 37.015625 -4.171875 C 31.285156 -6.804688 26.269531 -10.347656 21.96875 -14.796875 C 18.945312 -17.984375 16.519531 -21.328125 14.6875 -24.828125 C 12.851562 -28.335938 11.457031 -31.757812 10.5 -35.09375 C 9.550781 -38.4375 8.957031 -41.703125 8.71875 -44.890625 C 8.476562 -48.078125 8.359375 -50.863281 8.359375 -53.25 L 8.359375 -54.203125 Z M 54.203125 -54.203125 "/></g></g></g><g fill="#004b93" fill-opacity="1"><g transform="translate(183.139836, 214.896966)"><g><path d="M 61.84375 -87.625 L 101.484375 -87.625 C 103.554688 -87.625 105.785156 -87.703125 108.171875 -87.859375 C 110.554688 -88.023438 112.941406 -88.382812 115.328125 -88.9375 C 117.710938 -89.5 119.976562 -90.21875 122.125 -91.09375 C 124.28125 -91.96875 126.078125 -93.125 127.515625 -94.5625 C 129.265625 -96.3125 130.734375 -98.65625 131.921875 -101.59375 C 133.117188 -104.539062 133.71875 -107.925781 133.71875 -111.75 C 133.71875 -115.882812 132.960938 -119.34375 131.453125 -122.125 C 129.941406 -124.914062 127.988281 -127.1875 125.59375 -128.9375 C 124.800781 -129.570312 122.769531 -130.523438 119.5 -131.796875 C 116.238281 -133.078125 111.109375 -133.71875 104.109375 -133.71875 L 61.84375 -133.71875 Z M 107.453125 -167.140625 C 113.179688 -167.140625 118.628906 -166.976562 123.796875 -166.65625 C 128.972656 -166.34375 133.910156 -165.671875 138.609375 -164.640625 C 143.304688 -163.609375 147.722656 -162.097656 151.859375 -160.109375 C 156.003906 -158.117188 159.90625 -155.453125 163.5625 -152.109375 C 166.75 -149.078125 169.375 -145.929688 171.4375 -142.671875 C 173.507812 -139.410156 175.101562 -136.023438 176.21875 -132.515625 C 177.332031 -129.015625 178.085938 -125.550781 178.484375 -122.125 C 178.878906 -118.707031 179.078125 -115.410156 179.078125 -112.234375 C 179.078125 -105.546875 178.203125 -98.773438 176.453125 -91.921875 C 174.703125 -85.078125 171.039062 -78.632812 165.46875 -72.59375 C 161.65625 -68.445312 157.476562 -65.21875 152.9375 -62.90625 C 148.40625 -60.601562 143.550781 -58.851562 138.375 -57.65625 C 133.195312 -56.46875 127.78125 -55.753906 122.125 -55.515625 C 116.476562 -55.273438 110.632812 -55.15625 104.59375 -55.15625 L 61.84375 -55.15625 L 61.84375 0 L 17.90625 0 L 17.90625 -167.140625 Z M 107.453125 -167.140625 "/></g></g></g><g fill="#004b93" fill-opacity="1"><g transform="translate(368.906167, 214.896966)"><g><path d="M 153.53125 -100.765625 L 153.53125 -69.25 L 61.84375 -69.25 L 61.84375 -33.421875 L 172.875 -33.421875 L 172.875 0 L 17.90625 0 L 17.90625 -167.140625 L 170.25 -167.140625 L 170.25 -133.71875 L 61.84375 -133.71875 L 61.84375 -100.765625 Z M 153.53125 -100.765625 "/></g></g></g><g fill="#004b93" fill-opacity="1"><g transform="translate(547.50926, 214.896966)"><g><path d="M 188.875 0 L 146.140625 0 L 61.84375 -112.234375 L 61.84375 0 L 17.90625 0 L 17.90625 -167.140625 L 60.890625 -167.140625 L 144.9375 -54.921875 L 144.9375 -167.140625 L 188.875 -167.140625 Z M 188.875 0 "/></g></g></g><g fill="#004b93" fill-opacity="1"><g transform="translate(755.242761, 214.896966)"><g><path d="M 197.953125 -89.546875 L 197.953125 0 L 166.90625 0 L 165.46875 -24.109375 C 162.289062 -18.703125 158.671875 -14.164062 154.609375 -10.5 C 150.546875 -6.84375 146.367188 -3.976562 142.078125 -1.90625 C 135.390625 1.269531 128.265625 3.175781 120.703125 3.8125 C 113.140625 4.457031 106.253906 4.78125 100.046875 4.78125 C 94.472656 4.78125 88.738281 4.578125 82.84375 4.171875 C 76.957031 3.773438 71.070312 2.78125 65.1875 1.1875 C 59.300781 -0.394531 53.53125 -2.738281 47.875 -5.84375 C 42.226562 -8.945312 36.9375 -13.128906 32 -18.390625 C 25.945312 -24.753906 20.769531 -33.1875 16.46875 -43.6875 C 12.175781 -54.195312 10.03125 -66.9375 10.03125 -81.90625 C 10.03125 -90.820312 10.820312 -98.820312 12.40625 -105.90625 C 14 -112.988281 16.070312 -119.234375 18.625 -124.640625 C 21.175781 -130.054688 23.921875 -134.753906 26.859375 -138.734375 C 29.804688 -142.710938 32.710938 -146.054688 35.578125 -148.765625 C 40.992188 -154.015625 46.765625 -158.148438 52.890625 -161.171875 C 59.015625 -164.203125 65.140625 -166.550781 71.265625 -168.21875 C 77.398438 -169.894531 83.453125 -170.96875 89.421875 -171.4375 C 95.390625 -171.914062 101 -172.15625 106.25 -172.15625 C 115.644531 -172.15625 123.84375 -171.675781 130.84375 -170.71875 C 137.851562 -169.769531 143.863281 -168.578125 148.875 -167.140625 C 153.894531 -165.710938 158.035156 -164.203125 161.296875 -162.609375 C 164.554688 -161.015625 167.144531 -159.660156 169.0625 -158.546875 C 174.46875 -155.046875 178.921875 -151.265625 182.421875 -147.203125 C 185.929688 -143.148438 188.640625 -139.09375 190.546875 -135.03125 C 192.453125 -130.96875 193.800781 -126.984375 194.59375 -123.078125 C 195.394531 -119.179688 195.878906 -115.644531 196.046875 -112.46875 L 150.1875 -112.46875 C 149.875 -116.601562 148.722656 -120.34375 146.734375 -123.6875 C 144.742188 -127.03125 141.441406 -130.054688 136.828125 -132.765625 C 132.203125 -135.472656 127.5 -137.144531 122.71875 -137.78125 C 117.945312 -138.414062 113.492188 -138.734375 109.359375 -138.734375 C 103.148438 -138.734375 96.742188 -137.972656 90.140625 -136.453125 C 83.535156 -134.941406 77.523438 -131.484375 72.109375 -126.078125 C 67.171875 -120.984375 63.546875 -114.578125 61.234375 -106.859375 C 58.929688 -99.140625 57.78125 -91.0625 57.78125 -82.625 C 57.78125 -71.789062 59.332031 -63.03125 62.4375 -56.34375 C 65.539062 -49.664062 68.925781 -44.578125 72.59375 -41.078125 C 78.320312 -35.503906 84.328125 -32.039062 90.609375 -30.6875 C 96.898438 -29.332031 103.148438 -28.65625 109.359375 -28.65625 C 114.609375 -28.65625 120.097656 -29.171875 125.828125 -30.203125 C 131.566406 -31.242188 136.742188 -33.671875 141.359375 -37.484375 C 144.066406 -39.710938 146.691406 -42.9375 149.234375 -47.15625 C 151.785156 -51.375 153.457031 -56.429688 154.25 -62.328125 L 115.5625 -62.328125 L 115.5625 -89.546875 Z M 197.953125 -89.546875 "/></g></g></g><g fill="#004b93" fill-opacity="1"><g transform="translate(968.706885, 214.896966)"><g><path d="M 153.296875 0 L 17.90625 0 L 17.90625 -167.140625 L 61.84375 -167.140625 L 61.84375 -33.90625 L 153.296875 -33.90625 Z M 153.296875 0 "/></g></g></g><g fill="#004b93" fill-opacity="1"><g transform="translate(1125.342774, 214.896966)"><g><path d="M 153.53125 -100.765625 L 153.53125 -69.25 L 61.84375 -69.25 L 61.84375 -33.421875 L 172.875 -33.421875 L 172.875 0 L 17.90625 0 L 17.90625 -167.140625 L 170.25 -167.140625 L 170.25 -133.71875 L 61.84375 -133.71875 L 61.84375 -100.765625 Z M 153.53125 -100.765625 "/></g></g></g><g fill="#004b93" fill-opacity="1"><g transform="translate(1303.945867, 214.896966)"><g><path d="M 61.84375 -92.890625 L 108.40625 -92.890625 C 112.070312 -92.890625 116.050781 -93.207031 120.34375 -93.84375 C 124.644531 -94.476562 128.382812 -96.390625 131.5625 -99.578125 C 132.84375 -100.847656 134.078125 -102.675781 135.265625 -105.0625 C 136.460938 -107.445312 137.0625 -110.394531 137.0625 -113.90625 C 137.0625 -118.195312 136.1875 -121.65625 134.4375 -124.28125 C 132.6875 -126.90625 130.851562 -128.859375 128.9375 -130.140625 C 127.664062 -130.929688 126.070312 -131.566406 124.15625 -132.046875 C 122.25 -132.523438 120.300781 -132.882812 118.3125 -133.125 C 116.320312 -133.363281 114.367188 -133.519531 112.453125 -133.59375 C 110.546875 -133.675781 109.035156 -133.71875 107.921875 -133.71875 L 61.84375 -133.71875 Z M 17.90625 -167.140625 L 116.765625 -167.140625 C 120.898438 -167.140625 125.394531 -167.019531 130.25 -166.78125 C 135.101562 -166.550781 139.957031 -165.914062 144.8125 -164.875 C 149.675781 -163.84375 154.375 -162.332031 158.90625 -160.34375 C 163.445312 -158.351562 167.46875 -155.609375 170.96875 -152.109375 C 175.90625 -147.171875 179.046875 -141.796875 180.390625 -135.984375 C 181.742188 -130.171875 182.421875 -124.957031 182.421875 -120.34375 C 182.421875 -114.769531 181.625 -109.472656 180.03125 -104.453125 C 178.445312 -99.441406 175.582031 -94.867188 171.4375 -90.734375 C 168.570312 -87.867188 165.226562 -85.441406 161.40625 -83.453125 C 157.59375 -81.460938 153.773438 -79.988281 149.953125 -79.03125 L 149.953125 -78.078125 C 153.453125 -77.441406 156.953125 -76.285156 160.453125 -74.609375 C 163.960938 -72.941406 166.988281 -70.753906 169.53125 -68.046875 C 171.445312 -65.984375 172.960938 -63.914062 174.078125 -61.84375 C 175.191406 -59.769531 175.984375 -57.660156 176.453125 -55.515625 C 176.929688 -53.367188 177.25 -51.21875 177.40625 -49.0625 C 177.570312 -46.914062 177.734375 -44.804688 177.890625 -42.734375 L 179.078125 -23.875 C 179.398438 -19.738281 179.957031 -15.835938 180.75 -12.171875 C 181.550781 -8.515625 183.304688 -4.457031 186.015625 0 L 139.453125 0 C 136.742188 -3.65625 135.070312 -7.078125 134.4375 -10.265625 C 133.800781 -13.453125 133.320312 -17.113281 133 -21.25 L 132.28125 -35.09375 C 131.96875 -40.1875 131.09375 -44.40625 129.65625 -47.75 C 128.226562 -51.09375 126.476562 -53.640625 124.40625 -55.390625 C 122.019531 -57.460938 118.796875 -58.972656 114.734375 -59.921875 C 110.671875 -60.878906 106.734375 -61.359375 102.921875 -61.359375 L 61.84375 -61.359375 L 61.84375 0 L 17.90625 0 Z M 17.90625 -167.140625 "/></g></g></g></g></g></svg>